<?xml version="1.0" encoding="UTF-8" standalone="no"?>
<!DOCTYPE svg PUBLIC "-//W3C//DTD SVG 1.1//EN" "http://www.w3.org/Graphics/SVG/1.1/DTD/svg11.dtd">
<svg width="100%" height="100%" viewBox="0 0 370 160" version="1.1" xmlns="http://www.w3.org/2000/svg" xmlns:xlink="http://www.w3.org/1999/xlink" xml:space="preserve" xmlns:serif="http://www.serif.com/" style="fill-rule:evenodd;clip-rule:evenodd;stroke-linejoin:round;stroke-miterlimit:2;">
    <path d="M160,89.174L160,150C160,155.519 155.519,160 150,160L10,160C4.481,160 0,155.519 0,150L0,10C0,4.481 4.481,0 10,0L150,0C155.519,0 160,4.481 160,10L160,76.898C181.202,75.478 192.074,63.699 205.423,52.248C221.564,38.403 240.692,24.562 280,24.562L280,8C280,3.585 283.585,0 288,0L362,0C366.415,0 370,3.585 370,8L370,52C370,56.415 366.415,60 362,60L288,60C283.585,60 280,56.415 280,52L280,36.562C237.434,36.562 221.177,54.748 204.248,69.14C198,74.452 191.668,79.297 184.227,82.878C194.466,87.674 201.909,94.831 209.08,102.053C219.574,112.621 229.28,123.521 249.946,123.521L249.946,135.521C225.165,135.521 213.149,123.181 200.565,110.509C190.686,100.56 180.346,90.44 160,89.174ZM340,152C340,156.415 336.415,160 332,160L258,160C253.585,160 250,156.415 250,152L250,108C250,103.585 253.585,100 258,100L332,100C336.415,100 340,103.585 340,108L340,152ZM262,112L262,148L328,148L328,112L262,112ZM292,12L292,48L358,48L358,12L292,12Z" style="fill:rgb(162,34,34);"/>
    <g transform="matrix(0.426195,0,0,0.426195,41.1732,16.1415)">
        <path d="M33.715,-0.332L33.794,-0.332C37.888,-0.332 41.675,1.097 44.679,3.48L173.833,64.78C179.965,67.682 183.892,73.884 183.892,80.668C183.892,86.254 181.229,91.519 176.728,94.829L101.753,150.096L176.728,205.336C181.264,208.625 183.955,213.899 183.955,219.502C183.955,226.298 179.996,232.504 173.833,235.369L41.694,298.101C39.312,299.314 36.623,300 33.786,300L33.707,300C24.091,299.948 16.209,292.022 16.209,282.406L16.209,239.043L16.129,239.043L16.129,180.37C16.056,179.724 16.018,179.069 16.018,178.406C16.018,177.744 16.056,177.087 16.129,176.436L16.129,18.718C16.112,18.399 16.103,18.079 16.103,17.758C16.103,17.458 16.111,17.159 16.126,16.861C16.342,7.39 24.197,-0.332 33.715,-0.332ZM72.104,171.955L61.419,179.827L51.38,187.227L51.38,254.627L132.204,216.264L72.104,171.955ZM51.38,45.614L51.38,112.974L61.555,120.479L72.068,128.225L132.204,83.916L51.38,45.614Z" style="fill:white;fill-rule:nonzero;"/>
    </g>
</svg>
