<?xml version="1.0" encoding="UTF-8" standalone="no"?>
<!DOCTYPE svg PUBLIC "-//W3C//DTD SVG 1.1//EN" "http://www.w3.org/Graphics/SVG/1.1/DTD/svg11.dtd">
<svg width="100%" height="100%" viewBox="0 0 160 160" version="1.1" xmlns="http://www.w3.org/2000/svg" xmlns:xlink="http://www.w3.org/1999/xlink" xml:space="preserve" xmlns:serif="http://www.serif.com/" style="fill-rule:evenodd;clip-rule:evenodd;stroke-linejoin:round;stroke-miterlimit:2;">
    <g transform="matrix(0.64257,0,0,1.01599,-127.229,-177.308)">
        <path d="M447,184.36C447,178.928 440.027,174.518 431.438,174.518L213.563,174.518C204.973,174.518 198,178.928 198,184.36L198,322.157C198,327.59 204.973,332 213.563,332L431.438,332C440.027,332 447,327.59 447,322.157L447,184.36Z" style="fill:rgb(162,34,34);"/>
    </g>
    <g transform="matrix(0.426195,0,0,0.426195,41.1732,16.1415)">
        <path d="M33.715,-0.332L33.794,-0.332C37.888,-0.332 41.675,1.097 44.679,3.48L173.833,64.78C179.965,67.682 183.892,73.884 183.892,80.668C183.892,86.254 181.229,91.519 176.728,94.829L101.753,150.096L176.728,205.336C181.264,208.625 183.955,213.899 183.955,219.502C183.955,226.298 179.996,232.504 173.833,235.369L41.694,298.101C39.312,299.314 36.623,300 33.786,300L33.707,300C24.091,299.948 16.209,292.022 16.209,282.406L16.209,239.043L16.129,239.043L16.129,180.37C16.056,179.724 16.018,179.069 16.018,178.406C16.018,177.744 16.056,177.087 16.129,176.436L16.129,18.718C16.112,18.399 16.103,18.079 16.103,17.758C16.103,17.458 16.111,17.159 16.126,16.861C16.342,7.39 24.197,-0.332 33.715,-0.332ZM72.104,171.955L61.419,179.827L51.38,187.227L51.38,254.627L132.204,216.264L72.104,171.955ZM51.38,45.614L51.38,112.974L61.555,120.479L72.068,128.225L132.204,83.916L51.38,45.614Z" style="fill:white;fill-rule:nonzero;"/>
    </g>
</svg>
